<svg xmlns="http://www.w3.org/2000/svg" viewBox="36.5 -13.5 48 48" enable-background="new 36.5 -13.5 48 48"><linearGradient id="a" gradientUnits="userSpaceOnUse" x1="60.5" y1="-13.5" x2="60.5" y2="34.5"><stop offset="0" stop-color="#29CDEC"/><stop offset="1" stop-color="#127788"/></linearGradient><path fill="url(#a)" d="M63-2.3v6.2l7.1 6.6-7.1 6.6v6.2l13.5-12.8-13.5-12.8zm-5.2 19.4l-7.1-6.6 7.1-6.6v-6.2l-13.5 12.8 13.5 12.8v-6.2zm2.7-30.6c-13.3 0-24 10.7-24 24s10.7 24 24 24 24-10.7 24-24-10.7-24-24-24zm0 43.7c-10.7 0-19.7-8.7-19.7-19.7s9-19.7 19.7-19.7 19.7 9 19.7 19.7-9 19.7-19.7 19.7z"/></svg>